<?xml version="1.0" encoding="UTF-8" standalone="no"?>
<!-- Created with Inkscape (http://www.inkscape.org/) -->

<svg
   xmlns:dc="http://purl.org/dc/elements/1.1/"
   xmlns:cc="http://creativecommons.org/ns#"
   xmlns:rdf="http://www.w3.org/1999/02/22-rdf-syntax-ns#"
   xmlns:svg="http://www.w3.org/2000/svg"
   xmlns="http://www.w3.org/2000/svg"
   xmlns:sodipodi="http://sodipodi.sourceforge.net/DTD/sodipodi-0.dtd"
   xmlns:inkscape="http://www.inkscape.org/namespaces/inkscape"
   width="210mm"
   height="297mm"
   viewBox="0 0 744.09448819 1052.3622047"
   id="svg2"
   version="1.1"
   inkscape:version="0.91 r13725"
   sodipodi:docname="background2.svg">
  <defs
     id="defs4" />
  <sodipodi:namedview
     id="base"
     pagecolor="#ffffff"
     bordercolor="#666666"
     borderopacity="1.0"
     inkscape:pageopacity="0.0"
     inkscape:pageshadow="2"
     inkscape:zoom="0.35"
     inkscape:cx="-286.42857"
     inkscape:cy="520"
     inkscape:document-units="px"
     inkscape:current-layer="layer1"
     showgrid="false"
     inkscape:window-width="854"
     inkscape:window-height="718"
     inkscape:window-x="234"
     inkscape:window-y="234"
     inkscape:window-maximized="0" />
  <metadata
     id="metadata7">
    <rdf:RDF>
      <cc:Work
         rdf:about="">
        <dc:format>image/svg+xml</dc:format>
        <dc:type
           rdf:resource="http://purl.org/dc/dcmitype/StillImage" />
        <dc:title></dc:title>
      </cc:Work>
    </rdf:RDF>
  </metadata>
  <g
     inkscape:label="Layer 1"
     inkscape:groupmode="layer"
     id="layer1">
    <g
       id="g3356"
       transform="matrix(14.369272,0,0,21.114285,-9.3571429,-1.2092214)">
      <path
         id="path3339"
         d="m 31.8,29.2 c 1.2,0.4 2.5,0.1 3.4,-0.8 1.3,-1.3 1.3,-3.5 0,-4.8 -1.3,-1.3 -3.5,-1.3 -4.8,0 L 12.7,5.8 C 14,4.4 14,2.3 12.7,1 11.4,-0.3 9.2,-0.3 7.9,1 7,1.9 6.7,3.3 7.1,4.4 5.9,4 4.6,4.3 3.6,5.2 2.3,6.5 2.3,8.7 3.6,10 4.8,11.2 6.7,11.3 8,10.3 l 17.9,17.9 c -1,1.3 -0.9,3.2 0.3,4.4 1.3,1.3 3.5,1.3 4.8,0 1,-0.9 1.2,-2.2 0.8,-3.4 z"
         class="st0"
         inkscape:connector-curvature="0"
         style="fill:#ffffff" />
      <g
         id="g3341">
        <path
           id="path3343"
           d="m 36,45.7 c -1.3,-1 -3.2,-0.9 -4.4,0.3 -1.1,1.1 -1.3,2.7 -0.6,4 l 9.9,0 12.1,-12.1 0,-9.2 -17,17 z"
           class="st0"
           inkscape:connector-curvature="0"
           style="fill:#ffffff" />
      </g>
      <path
         id="path3345"
         d="m 40.5,0 -9.9,0 c 0.2,0.3 0.3,0.6 0.6,0.8 0.9,0.9 2.3,1.2 3.4,0.8 -0.4,1.2 -0.1,2.5 0.8,3.4 1.3,1.3 3.5,1.3 4.8,0 1.3,-1.3 1.3,-3.5 0,-4.8 L 40.5,0 Z"
         class="st0"
         inkscape:connector-curvature="0"
         style="fill:#ffffff" />
      <path
         id="path3347"
         d="M 10.3,27.6 C 9.4,26.7 8,26.4 6.9,26.8 7.2,25.7 7,24.3 6,23.4 4.7,22.1 2.5,22.1 1.2,23.4 0,24.6 -0.1,26.5 0.9,27.8 L 0,28.8 0,38 5.5,32.5 c 1.3,1.3 3.5,1.3 4.8,0 1.3,-1.4 1.3,-3.6 0,-4.9 z"
         class="st0"
         inkscape:connector-curvature="0"
         style="fill:#ffffff" />
    </g>
  </g>
  <style
     id="style3337"
     type="text/css">
	.st0{fill:#FFFFFF;}
</style>
</svg>
